<svg xmlns="http://www.w3.org/2000/svg" viewBox="0 0 512 512" style="height: 512px; width: 512px;"><path d="M0 0h512v512H0z" fill="#000000" fill-opacity="1"></path><g class="" transform="translate(5,-4)" style="touch-action: none;"><path d="M490.74 21.411c-8.947.782-20.72 3.22-33.566 7.781-16.386 5.82-34.345 14.758-50.969 25.893l26.783 36.525c15.712-12.52 29.853-26.925 40.428-40.757 8.265-10.811 14.055-21.243 17.324-29.442zm-99.265 44.026L57.609 310.24l8.28 11.291 83.062-60.906 10.643 14.516-83.063 60.906 8.28 11.29 333.865-244.806zm-18.252 92.746L203.164 282.876l13.924 7.15L375.855 173.61zm-48.602 75.316l-35.775 26.234c3.899 3.046 8.821 4.856 14.213 4.856 12.809 0 23-10.191 23-23 0-2.855-.51-5.579-1.438-8.09zm-255.267 7.527L21.26 260.67l25.705 35.057 65.54-48.057zm226.705 40.948v30.615h14v-30.615a40.734 40.734 0 0 1-7 .615c-2.386 0-4.723-.219-7-.615zm-135.065 31.822l-65.54 48.058 25.706 35.06 33.194-39.964zm-117.9 7.09l-11.291 8.279 27.2 37.096 11.29-8.28zm236.965 9.703v78h46v-78zm-18 54.336l-61.426 71.664h23.709l37.717-44.004zm82 0v27.66l37.716 44.004h23.71zm-192 89.664v16h94v-16zm208 0v16h94v-16z" fill="#7ed321" fill-opacity="1"></path></g><g class="" transform="translate(688,283)" style="touch-action: none;"><g><circle cx="128" cy="128" r="128" fill="#000" fill-opacity="1"></circle><circle stroke="#fff" stroke-opacity="1" fill="#000" fill-opacity="1" stroke-width="18" cx="128" cy="128" r="101"></circle><path fill="#fff" fill-opacity="1" d="M89.11 76.38L76.38 89.11 115.272 128l-38.89 38.89 12.728 12.73L128 140.728l38.89 38.89 12.73-12.728L140.728 128l38.89-38.89-12.728-12.73L128 115.272z"></path></g></g></svg>