<svg xmlns="http://www.w3.org/2000/svg" viewBox="0 0 512 512" style="height: 512px; width: 512px;"><path d="M0 0h512v512H0z" fill="#000000" fill-opacity="1"></path><g class="" transform="translate(5,-4)" style="touch-action: none;"><path d="M79.238 115.768l-28.51 67.863h406.15l-.273-67.862h-263.83v55.605h-15v-55.605h-16.68v55.605H146.1v-55.605h-17.434v55.605h-15v-55.605H79.238zm387.834 15.96v40.66h18.688v-40.66h-18.688zM56.768 198.63l20.566 32.015L28.894 406.5l101.68 7.174 21.54-97.996h115.74l14.664-80.252 174.55-3.873-.13-32.922H56.767zM263.44 235.85l-11.17 61.142h-96.05l12.98-59.05 12.53-.278-2.224 35.5 14.262 13.576 1.003-33.65 24.69-16.264 43.98-.976z" fill="#7ed321" fill-opacity="1"></path></g><g class="" transform="translate(688,283)" style="touch-action: none;"><g><circle cx="128" cy="128" r="128" fill="#000" fill-opacity="1"></circle><circle stroke="#fff" stroke-opacity="1" fill="#000" fill-opacity="1" stroke-width="18" cx="128" cy="128" r="101"></circle><path fill="#fff" fill-opacity="1" d="M89.11 76.38L76.38 89.11 115.272 128l-38.89 38.89 12.728 12.73L128 140.728l38.89 38.89 12.73-12.728L140.728 128l38.89-38.89-12.728-12.73L128 115.272z"></path></g></g></svg>