<svg xmlns="http://www.w3.org/2000/svg" viewBox="0 0 512 512" style="height: 512px; width: 512px;"><path d="M0 0h512v512H0z" fill="#000000" fill-opacity="1"></path><g class="" transform="translate(5,-4)" style="touch-action: none;"><path d="M151 22v32h18V22h-18zm48 0v32h18V22h-18zm48 0v32h18V22h-18zm48 0v32h18V22h-18zm48 0v32h18V22h-18zM131.7 73L73 131.7v248.6l58.7 58.7h248.6l58.7-58.7V131.7L380.3 73H131.7zm60.3 46h128v18H192v-18zM22 151v18h32v-18H22zm436 0v18h32v-18h-32zm-339 32h274v146H119V183zm-97 16v18h32v-18H22zm436 0v18h32v-18h-32zm-321 2v110h238V201H137zM22 247v18h32v-18H22zm436 0v18h32v-18h-32zM22 295v18h32v-18H22zm436 0v18h32v-18h-32zM22 343v18h32v-18H22zm436 0v18h32v-18h-32zm-266 32h128v18H192v-18zm-41 83v32h18v-32h-18zm48 0v32h18v-32h-18zm48 0v32h18v-32h-18zm48 0v32h18v-32h-18zm48 0v32h18v-32h-18z" fill="#7ed321" fill-opacity="1"></path></g><g class="" transform="translate(688,283)" style="touch-action: none;"><g><circle cx="128" cy="128" r="128" fill="#000" fill-opacity="1"></circle><circle stroke="#fff" stroke-opacity="1" fill="#000" fill-opacity="1" stroke-width="18" cx="128" cy="128" r="101"></circle><path fill="#fff" fill-opacity="1" d="M89.11 76.38L76.38 89.11 115.272 128l-38.89 38.89 12.728 12.73L128 140.728l38.89 38.89 12.73-12.728L140.728 128l38.89-38.89-12.728-12.73L128 115.272z"></path></g></g></svg>